<?xml version="1.0" standalone="no"?>
<!DOCTYPE svg PUBLIC "-//W3C//DTD SVG 20010904//EN"
 "http://www.w3.org/TR/2001/REC-SVG-20010904/DTD/svg10.dtd">
<svg version="1.0" xmlns="http://www.w3.org/2000/svg"
 width="626.000000pt" height="626.000000pt" viewBox="0 0 626.000000 626.000000"
 preserveAspectRatio="xMidYMid meet">
<metadata>
Created by potrace 1.14, written by Peter Selinger 2001-2017
</metadata>
<g transform="translate(0.000000,626.000000) scale(0.100000,-0.100000)"
fill="#000000" stroke="none">
<path d="M5165 6249 c-335 -51 -750 -390 -1181 -965 -79 -104 -90 -115 -113
-110 -14 3 -101 11 -193 18 -365 27 -777 -36 -1117 -171 -56 -22 -109 -45
-118 -50 -12 -6 -43 11 -127 74 -547 406 -1114 718 -1492 821 -86 24 -118 28
-249 28 l-150 1 -67 -33 c-247 -121 -263 -446 -46 -952 136 -318 392 -751 695
-1176 51 -72 93 -135 93 -139 0 -4 -15 -49 -34 -99 -71 -190 -124 -421 -146
-640 -18 -172 -8 -516 19 -675 91 -531 323 -999 683 -1376 99 -104 142 -139
406 -337 299 -224 636 -364 1057 -439 116 -21 161 -24 415 -24 311 0 389 8
627 66 464 113 881 347 1218 684 612 612 876 1466 719 2321 -62 342 -196 672
-391 963 l-83 125 40 123 c120 369 176 747 167 1123 -9 344 -61 535 -184 688
-94 116 -276 178 -448 151z m43 -636 c47 -38 86 -110 114 -210 20 -71 22 -102
23 -333 0 -194 -4 -287 -18 -390 -10 -74 -21 -137 -23 -139 -2 -3 -30 22 -62
55 -194 202 -500 381 -812 474 -41 13 -79 25 -84 28 -11 6 152 170 269 271
292 252 484 331 593 244z m-3967 -487 c52 -13 142 -43 202 -66 104 -40 443
-204 480 -232 16 -12 12 -17 -43 -57 -124 -91 -312 -310 -487 -568 -53 -78
-100 -140 -103 -138 -4 3 -35 51 -67 107 -215 369 -334 655 -337 810 -1 87 15
120 75 150 50 26 165 24 280 -6z m3229 -730 c137 -19 222 -39 319 -76 255 -98
390 -289 352 -496 -79 -429 -700 -884 -1486 -1089 -257 -67 -466 -95 -710 -95
-458 1 -766 123 -878 350 -27 54 -33 78 -35 151 -3 75 0 98 26 172 175 509
1090 1014 1977 1090 105 9 341 5 435 -7z"/>
<path d="M4341 4289 c-106 -42 -167 -177 -142 -315 46 -250 294 -396 447 -262
54 48 77 101 82 193 7 129 -43 246 -139 329 -68 57 -179 83 -248 55z"/>
<path d="M2835 3706 c-39 -17 -82 -61 -108 -111 -18 -34 -22 -57 -22 -145 0
-129 22 -194 96 -274 63 -69 123 -98 202 -97 87 0 141 35 185 121 33 64 34 67
30 165 -4 80 -10 111 -30 157 -33 71 -98 143 -160 174 -54 27 -143 32 -193 10z"/>
</g>
</svg>
